<?xml version="1.0" encoding="UTF-8" standalone="no"?>
<!-- Generator: Adobe Illustrator 18.1.0, SVG Export Plug-In . SVG Version: 6.00 Build 0)  -->

<svg
   xmlns:dc="http://purl.org/dc/elements/1.1/"
   xmlns:cc="http://creativecommons.org/ns#"
   xmlns:rdf="http://www.w3.org/1999/02/22-rdf-syntax-ns#"
   xmlns:svg="http://www.w3.org/2000/svg"
   xmlns="http://www.w3.org/2000/svg"
   xmlns:sodipodi="http://sodipodi.sourceforge.net/DTD/sodipodi-0.dtd"
   xmlns:inkscape="http://www.inkscape.org/namespaces/inkscape"
   version="1.1"
   id="Layer_1"
   x="0px"
   y="0px"
   viewBox="0 0 181 209"
   enable-background="new 0 0 320 240"
   xml:space="preserve"
   inkscape:version="0.92.3 (2405546, 2018-03-11)"
   sodipodi:docname="random.svg"
   width="181"
   height="209"
   inkscape:export-filename="/home/mc/Papers/Projects/Forks/hexbin/hexagons/mongodb.png"
   inkscape:export-xdpi="90"
   inkscape:export-ydpi="90"><metadata
     id="metadata65"><rdf:RDF><cc:Work
         rdf:about=""><dc:format>image/svg+xml</dc:format><dc:type
           rdf:resource="http://purl.org/dc/dcmitype/StillImage" /><dc:title /></cc:Work></rdf:RDF></metadata><defs
     id="defs63" /><sodipodi:namedview
     pagecolor="#ffffff"
     bordercolor="#666666"
     borderopacity="1"
     objecttolerance="10"
     gridtolerance="10"
     guidetolerance="10"
     inkscape:pageopacity="0"
     inkscape:pageshadow="2"
     inkscape:window-width="1920"
     inkscape:window-height="1036"
     id="namedview61"
     showgrid="false"
     fit-margin-top="0"
     fit-margin-left="0"
     fit-margin-right="0"
     fit-margin-bottom="0"
     inkscape:zoom="1.6562485"
     inkscape:cx="-22.510345"
     inkscape:cy="70.077921"
     inkscape:window-x="0"
     inkscape:window-y="25"
     inkscape:window-maximized="1"
     inkscape:current-layer="Layer_1"
     showguides="true" /><polygon
     points="251,171.7 160.5,224 70,171.7 70,67.2 160.5,15 251,67.2 "
     id="polygon3"
     style="fill:#4d4d4d;fill-opacity:1"
     transform="translate(-70,-15)" /><polygon
     points="70,171.7 70,67.2 160.5,15 251,67.2 251,171.7 160.5,224 "
     id="polygon3-3"
     style="fill:#ffffff;fill-opacity:1"
     transform="matrix(0.88665879,0,0,0.88665879,-51.808736,-1.4557254)" /><path
     id="path814"
     d="m 145.61063,136.36998 -17.52828,16.13399 c -3.34189,3.34188 -9.25104,0.97379 -9.25104,-3.76239 v -8.85266 h -6.86083 c -0.73034,0 -1.43855,-0.30985 -1.94758,-0.86314 l -19.874239,-21.51198 8.432169,-9.14039 17.66107,19.09964 h 2.58941 v -10.6232 c 0,-4.73618 5.90915,-7.10427 9.25104,-3.76239 l 17.52828,15.71349 c 2.05824,2.12464 2.05824,5.48865 0,7.56903 z M 36.501491,81.483436 H 56.818359 L 74.479439,100.58307 82.9116,91.442689 63.037358,69.930703 C 62.528335,69.377412 61.82012,69.067569 61.089776,69.067569 H 36.501491 c -1.460696,0 -2.655804,1.195109 -2.655804,2.6558 v 7.082135 c 0,1.482822 1.195108,2.677932 2.655804,2.677932 z M 145.61063,72.210266 128.08235,56.496782 c -3.34189,-3.341889 -9.25104,-0.973795 -9.25104,3.740248 v 8.85267 h -6.86083 c -0.73034,0 -1.43855,0.309843 -1.94758,0.863135 L 56.818359,127.51731 H 36.501491 c -1.460696,0 -2.655804,1.19512 -2.655804,2.6558 v 7.08213 c 0,1.4607 1.195108,2.65581 2.655804,2.65581 h 24.566155 c 0.730344,0 1.438559,-0.30984 1.947582,-0.86314 L 116.21977,81.483436 h 2.61154 v 10.623202 c 0,4.736178 5.90915,7.104267 9.25104,3.762385 l 17.52828,-16.15612 c 2.05824,-2.080378 2.05824,-5.444392 0,-7.502637 z"
     inkscape:connector-curvature="0"
     style="fill:#4d4d4d;stroke-width:0.22131671;fill-opacity:1" /></svg>